<mxfile host="app.diagrams.net" modified="2023-06-08T17:50:11.197Z" agent="Mozilla/5.0 (Windows NT 10.0; Win64; x64) AppleWebKit/537.36 (KHTML, like Gecko) Chrome/114.0.0.0 Safari/537.36" etag="W2lrJ5ArljbL5L1J5Gx2" version="21.3.7" type="github">
  <diagram id="C5RBs43oDa-KdzZeNtuy" name="Page-1">
    <mxGraphModel dx="880" dy="476" grid="1" gridSize="10" guides="1" tooltips="1" connect="1" arrows="1" fold="1" page="1" pageScale="1" pageWidth="827" pageHeight="1169" math="0" shadow="0">
      <root>
        <mxCell id="WIyWlLk6GJQsqaUBKTNV-0" />
        <mxCell id="WIyWlLk6GJQsqaUBKTNV-1" parent="WIyWlLk6GJQsqaUBKTNV-0" />
        <mxCell id="UVGdm04NhcxoAWDfrjRS-1" value="User" style="swimlane;fontStyle=1;align=center;verticalAlign=top;childLayout=stackLayout;horizontal=1;startSize=26;horizontalStack=0;resizeParent=1;resizeParentMax=0;resizeLast=0;collapsible=1;marginBottom=0;whiteSpace=wrap;html=1;" vertex="1" parent="WIyWlLk6GJQsqaUBKTNV-1">
          <mxGeometry x="130" y="80" width="160" height="228" as="geometry" />
        </mxCell>
        <mxCell id="UVGdm04NhcxoAWDfrjRS-2" value="+ Username: text&lt;br&gt;+ Card_Type: text&lt;br&gt;+ Bank_Name: text&lt;br&gt;+ Address: text&lt;br&gt;+ Phone_Number: number" style="text;strokeColor=none;fillColor=none;align=left;verticalAlign=top;spacingLeft=4;spacingRight=4;overflow=hidden;rotatable=0;points=[[0,0.5],[1,0.5]];portConstraint=eastwest;whiteSpace=wrap;html=1;" vertex="1" parent="UVGdm04NhcxoAWDfrjRS-1">
          <mxGeometry y="26" width="160" height="94" as="geometry" />
        </mxCell>
        <mxCell id="UVGdm04NhcxoAWDfrjRS-3" value="" style="line;strokeWidth=1;fillColor=none;align=left;verticalAlign=middle;spacingTop=-1;spacingLeft=3;spacingRight=3;rotatable=0;labelPosition=right;points=[];portConstraint=eastwest;strokeColor=inherit;" vertex="1" parent="UVGdm04NhcxoAWDfrjRS-1">
          <mxGeometry y="120" width="160" height="8" as="geometry" />
        </mxCell>
        <mxCell id="UVGdm04NhcxoAWDfrjRS-4" value="+ insertCard(): void&lt;br&gt;+ insertPIN(): boolean&lt;br&gt;+ checkBalance(): int&lt;br&gt;+ withdrawal(): int&amp;nbsp;&lt;br&gt;+ diposit(): string&lt;br&gt;+ wantInvoice(): boolean" style="text;strokeColor=none;fillColor=none;align=left;verticalAlign=top;spacingLeft=4;spacingRight=4;overflow=hidden;rotatable=0;points=[[0,0.5],[1,0.5]];portConstraint=eastwest;whiteSpace=wrap;html=1;" vertex="1" parent="UVGdm04NhcxoAWDfrjRS-1">
          <mxGeometry y="128" width="160" height="100" as="geometry" />
        </mxCell>
        <mxCell id="UVGdm04NhcxoAWDfrjRS-5" value="ATM" style="swimlane;fontStyle=1;align=center;verticalAlign=top;childLayout=stackLayout;horizontal=1;startSize=26;horizontalStack=0;resizeParent=1;resizeParentMax=0;resizeLast=0;collapsible=1;marginBottom=0;whiteSpace=wrap;html=1;" vertex="1" parent="WIyWlLk6GJQsqaUBKTNV-1">
          <mxGeometry x="370" y="240" width="160" height="190" as="geometry" />
        </mxCell>
        <mxCell id="UVGdm04NhcxoAWDfrjRS-6" value="+ PIN: number&lt;br&gt;+ Card_Id: number&lt;br&gt;+ Account: string" style="text;strokeColor=none;fillColor=none;align=left;verticalAlign=top;spacingLeft=4;spacingRight=4;overflow=hidden;rotatable=0;points=[[0,0.5],[1,0.5]];portConstraint=eastwest;whiteSpace=wrap;html=1;" vertex="1" parent="UVGdm04NhcxoAWDfrjRS-5">
          <mxGeometry y="26" width="160" height="64" as="geometry" />
        </mxCell>
        <mxCell id="UVGdm04NhcxoAWDfrjRS-7" value="" style="line;strokeWidth=1;fillColor=none;align=left;verticalAlign=middle;spacingTop=-1;spacingLeft=3;spacingRight=3;rotatable=0;labelPosition=right;points=[];portConstraint=eastwest;strokeColor=inherit;" vertex="1" parent="UVGdm04NhcxoAWDfrjRS-5">
          <mxGeometry y="90" width="160" height="8" as="geometry" />
        </mxCell>
        <mxCell id="UVGdm04NhcxoAWDfrjRS-8" value="+ checkBalance()&lt;br&gt;+ withDrawal()&lt;br&gt;+ diposit()&lt;br&gt;+ verifyUser()&lt;br&gt;" style="text;strokeColor=none;fillColor=none;align=left;verticalAlign=top;spacingLeft=4;spacingRight=4;overflow=hidden;rotatable=0;points=[[0,0.5],[1,0.5]];portConstraint=eastwest;whiteSpace=wrap;html=1;" vertex="1" parent="UVGdm04NhcxoAWDfrjRS-5">
          <mxGeometry y="98" width="160" height="92" as="geometry" />
        </mxCell>
        <mxCell id="UVGdm04NhcxoAWDfrjRS-9" value="Card Scanner" style="swimlane;fontStyle=1;align=center;verticalAlign=top;childLayout=stackLayout;horizontal=1;startSize=26;horizontalStack=0;resizeParent=1;resizeParentMax=0;resizeLast=0;collapsible=1;marginBottom=0;whiteSpace=wrap;html=1;" vertex="1" parent="WIyWlLk6GJQsqaUBKTNV-1">
          <mxGeometry x="580" y="80" width="160" height="140" as="geometry" />
        </mxCell>
        <mxCell id="UVGdm04NhcxoAWDfrjRS-10" value="+ PIN: number&lt;br&gt;+ Card_number: number&lt;br&gt;+ Account: string" style="text;strokeColor=none;fillColor=none;align=left;verticalAlign=top;spacingLeft=4;spacingRight=4;overflow=hidden;rotatable=0;points=[[0,0.5],[1,0.5]];portConstraint=eastwest;whiteSpace=wrap;html=1;" vertex="1" parent="UVGdm04NhcxoAWDfrjRS-9">
          <mxGeometry y="26" width="160" height="64" as="geometry" />
        </mxCell>
        <mxCell id="UVGdm04NhcxoAWDfrjRS-11" value="" style="line;strokeWidth=1;fillColor=none;align=left;verticalAlign=middle;spacingTop=-1;spacingLeft=3;spacingRight=3;rotatable=0;labelPosition=right;points=[];portConstraint=eastwest;strokeColor=inherit;" vertex="1" parent="UVGdm04NhcxoAWDfrjRS-9">
          <mxGeometry y="90" width="160" height="8" as="geometry" />
        </mxCell>
        <mxCell id="UVGdm04NhcxoAWDfrjRS-12" value="+ validCardNumer()&lt;br&gt;+ validPIN()" style="text;strokeColor=none;fillColor=none;align=left;verticalAlign=top;spacingLeft=4;spacingRight=4;overflow=hidden;rotatable=0;points=[[0,0.5],[1,0.5]];portConstraint=eastwest;whiteSpace=wrap;html=1;" vertex="1" parent="UVGdm04NhcxoAWDfrjRS-9">
          <mxGeometry y="98" width="160" height="42" as="geometry" />
        </mxCell>
        <mxCell id="UVGdm04NhcxoAWDfrjRS-13" value="Account" style="swimlane;fontStyle=1;align=center;verticalAlign=top;childLayout=stackLayout;horizontal=1;startSize=26;horizontalStack=0;resizeParent=1;resizeParentMax=0;resizeLast=0;collapsible=1;marginBottom=0;whiteSpace=wrap;html=1;" vertex="1" parent="WIyWlLk6GJQsqaUBKTNV-1">
          <mxGeometry x="610" y="330" width="160" height="202" as="geometry" />
        </mxCell>
        <mxCell id="UVGdm04NhcxoAWDfrjRS-14" value="+ PIN: number&lt;br&gt;+ Card_number: number&lt;br&gt;+ Account: string&lt;br&gt;+ Branch: string&lt;br&gt;+ Card_type: string" style="text;strokeColor=none;fillColor=none;align=left;verticalAlign=top;spacingLeft=4;spacingRight=4;overflow=hidden;rotatable=0;points=[[0,0.5],[1,0.5]];portConstraint=eastwest;whiteSpace=wrap;html=1;" vertex="1" parent="UVGdm04NhcxoAWDfrjRS-13">
          <mxGeometry y="26" width="160" height="84" as="geometry" />
        </mxCell>
        <mxCell id="UVGdm04NhcxoAWDfrjRS-15" value="" style="line;strokeWidth=1;fillColor=none;align=left;verticalAlign=middle;spacingTop=-1;spacingLeft=3;spacingRight=3;rotatable=0;labelPosition=right;points=[];portConstraint=eastwest;strokeColor=inherit;" vertex="1" parent="UVGdm04NhcxoAWDfrjRS-13">
          <mxGeometry y="110" width="160" height="22" as="geometry" />
        </mxCell>
        <mxCell id="UVGdm04NhcxoAWDfrjRS-16" value="+ currentBalance(): int&lt;br&gt;+ accountType(); string&lt;br&gt;+ checkPIN(): boolean" style="text;strokeColor=none;fillColor=none;align=left;verticalAlign=top;spacingLeft=4;spacingRight=4;overflow=hidden;rotatable=0;points=[[0,0.5],[1,0.5]];portConstraint=eastwest;whiteSpace=wrap;html=1;" vertex="1" parent="UVGdm04NhcxoAWDfrjRS-13">
          <mxGeometry y="132" width="160" height="70" as="geometry" />
        </mxCell>
        <mxCell id="UVGdm04NhcxoAWDfrjRS-17" value="" style="endArrow=block;html=1;rounded=0;align=center;verticalAlign=bottom;endFill=0;labelBackgroundColor=none;endSize=8;exitX=-0.006;exitY=0.703;exitDx=0;exitDy=0;exitPerimeter=0;entryX=0.463;entryY=0;entryDx=0;entryDy=0;entryPerimeter=0;" edge="1" parent="WIyWlLk6GJQsqaUBKTNV-1" source="UVGdm04NhcxoAWDfrjRS-10" target="UVGdm04NhcxoAWDfrjRS-5">
          <mxGeometry relative="1" as="geometry">
            <mxPoint x="414" y="149.5" as="sourcePoint" />
            <mxPoint x="480" y="230" as="targetPoint" />
            <Array as="points">
              <mxPoint x="444" y="150" />
            </Array>
          </mxGeometry>
        </mxCell>
        <mxCell id="UVGdm04NhcxoAWDfrjRS-18" value="" style="resizable=0;html=1;align=center;verticalAlign=top;labelBackgroundColor=none;" connectable="0" vertex="1" parent="UVGdm04NhcxoAWDfrjRS-17">
          <mxGeometry relative="1" as="geometry" />
        </mxCell>
        <mxCell id="UVGdm04NhcxoAWDfrjRS-19" value="" style="endArrow=block;html=1;rounded=0;align=center;verticalAlign=bottom;endFill=0;labelBackgroundColor=none;endSize=8;exitX=0.313;exitY=0.01;exitDx=0;exitDy=0;exitPerimeter=0;entryX=1;entryY=0.188;entryDx=0;entryDy=0;entryPerimeter=0;" edge="1" parent="WIyWlLk6GJQsqaUBKTNV-1" source="UVGdm04NhcxoAWDfrjRS-13" target="UVGdm04NhcxoAWDfrjRS-6">
          <mxGeometry relative="1" as="geometry">
            <mxPoint x="530" y="276.5" as="sourcePoint" />
            <mxPoint x="540" y="277" as="targetPoint" />
            <Array as="points">
              <mxPoint x="660" y="277" />
            </Array>
          </mxGeometry>
        </mxCell>
        <mxCell id="UVGdm04NhcxoAWDfrjRS-20" value="" style="resizable=0;html=1;align=center;verticalAlign=top;labelBackgroundColor=none;" connectable="0" vertex="1" parent="UVGdm04NhcxoAWDfrjRS-19">
          <mxGeometry relative="1" as="geometry" />
        </mxCell>
        <mxCell id="UVGdm04NhcxoAWDfrjRS-21" value="" style="endArrow=open;endSize=12;dashed=1;html=1;rounded=0;entryX=0.188;entryY=0;entryDx=0;entryDy=0;entryPerimeter=0;" edge="1" parent="WIyWlLk6GJQsqaUBKTNV-1" target="UVGdm04NhcxoAWDfrjRS-5">
          <mxGeometry x="-0.0072" y="7" width="160" relative="1" as="geometry">
            <mxPoint x="290" y="110" as="sourcePoint" />
            <mxPoint x="450" y="110" as="targetPoint" />
            <Array as="points">
              <mxPoint x="400" y="110" />
            </Array>
            <mxPoint as="offset" />
          </mxGeometry>
        </mxCell>
        <mxCell id="UVGdm04NhcxoAWDfrjRS-23" value="" style="endArrow=open;endSize=12;dashed=1;html=1;rounded=0;entryX=0.006;entryY=0.229;entryDx=0;entryDy=0;exitX=0.475;exitY=0.98;exitDx=0;exitDy=0;exitPerimeter=0;entryPerimeter=0;" edge="1" parent="WIyWlLk6GJQsqaUBKTNV-1" source="UVGdm04NhcxoAWDfrjRS-4" target="UVGdm04NhcxoAWDfrjRS-16">
          <mxGeometry x="-0.0072" y="7" width="160" relative="1" as="geometry">
            <mxPoint x="210" y="320" as="sourcePoint" />
            <mxPoint x="410" y="250" as="targetPoint" />
            <Array as="points">
              <mxPoint x="206" y="480" />
            </Array>
            <mxPoint as="offset" />
          </mxGeometry>
        </mxCell>
      </root>
    </mxGraphModel>
  </diagram>
</mxfile>
